<?xml version="1.0" encoding="UTF-8"?>
<svg xmlns="http://www.w3.org/2000/svg" xmlns:xlink="http://www.w3.org/1999/xlink" width="911.8pt" height="291.88pt" viewBox="0 0 911.8 291.88" version="1.1">
<defs>
<clipPath id="clip1">
  <path d="M 359 0 L 911.800781 0 L 911.800781 91 L 359 91 Z M 359 0 "/>
</clipPath>
<clipPath id="clip2">
  <path d="M 359 201 L 742 201 L 742 291.878906 L 359 291.878906 Z M 359 201 "/>
</clipPath>
<clipPath id="clip3">
  <path d="M 0 0 L 115 0 L 115 291.878906 L 0 291.878906 Z M 0 0 "/>
</clipPath>
<clipPath id="clip4">
  <path d="M 125 0 L 237 0 L 237 291.878906 L 125 291.878906 Z M 125 0 "/>
</clipPath>
<clipPath id="clip5">
  <path d="M 249 0 L 348 0 L 348 291.878906 L 249 291.878906 Z M 249 0 "/>
</clipPath>
</defs>
<g id="surface1">
<g clip-path="url(#clip1)" clip-rule="nonzero">
<path style=" stroke:none;fill-rule:nonzero;fill:rgb(92.89856%,10.198975%,20.399475%);fill-opacity:1;" d="M 359.519531 90.867188 L 911.800781 90.867188 L 911.800781 0.824219 L 359.519531 0.824219 Z M 359.519531 90.867188 "/>
</g>
<path style=" stroke:none;fill-rule:nonzero;fill:rgb(70.199585%,11.399841%,55.299377%);fill-opacity:1;" d="M 359.519531 191.367188 L 826.839844 191.367188 L 826.839844 101.332031 L 359.519531 101.332031 Z M 359.519531 191.367188 "/>
<g clip-path="url(#clip2)" clip-rule="nonzero">
<path style=" stroke:none;fill-rule:nonzero;fill:rgb(4.699707%,40.79895%,69.799805%);fill-opacity:1;" d="M 359.519531 291.878906 L 741.105469 291.878906 L 741.105469 201.835938 L 359.519531 201.835938 Z M 359.519531 291.878906 "/>
</g>
<path style=" stroke:none;fill-rule:nonzero;fill:rgb(100%,100%,100%);fill-opacity:1;" d="M 379.492188 77.402344 L 367.988281 10.039063 L 374.847656 10.039063 L 381.511719 50.101563 C 382.320313 55.226563 383.023438 60.445313 383.226563 65.847656 C 383.628906 60.445313 384.4375 55.132813 385.550781 49.914063 L 394.332031 10.039063 L 400.285156 10.039063 L 409.0625 49.914063 C 410.175781 55.132813 410.984375 60.445313 411.386719 65.847656 C 411.589844 59.605469 412.394531 54.386719 413.101563 50.101563 L 419.761719 10.039063 L 426.628906 10.039063 L 415.121094 77.402344 L 408.460938 77.402344 L 398.46875 29.046875 C 397.863281 26.34375 397.460938 23.269531 397.257813 19.914063 C 396.753906 24.757813 396.246094 28.394531 395.742188 30.816406 L 386.152344 77.402344 "/>
<path style=" stroke:none;fill-rule:nonzero;fill:rgb(100%,100%,100%);fill-opacity:1;" d="M 441.566406 42.089844 C 441.566406 62.492188 444.796875 72.367188 453.78125 72.367188 C 462.558594 72.367188 465.992188 62.960938 465.992188 43.671875 C 465.992188 24.386719 462.460938 14.976563 453.78125 14.976563 C 445.199219 14.976563 441.566406 23.828125 441.566406 42.089844 M 433.695313 43.671875 C 433.695313 20.472656 440.660156 8.734375 453.78125 8.734375 C 466.898438 8.734375 473.964844 20.472656 473.964844 43.671875 C 473.964844 66.871094 466.898438 78.703125 453.78125 78.703125 C 440.660156 78.703125 433.695313 66.871094 433.695313 43.671875 "/>
<path style=" stroke:none;fill-rule:nonzero;fill:rgb(100%,100%,100%);fill-opacity:1;" d="M 499.5 39.480469 C 509.492188 39.480469 514.539063 35.566406 514.539063 27.742188 C 514.539063 19.820313 509.597656 16 499.5 16 L 493.144531 16 L 493.144531 39.480469 Z M 485.675781 10.039063 L 498.996094 10.039063 C 514.742188 10.039063 522.515625 15.816406 522.515625 27.742188 C 522.515625 35.941406 518.476563 41.625 511.007813 43.859375 L 522.917969 77.402344 L 514.84375 77.402344 L 503.84375 45.347656 C 501.316406 45.441406 498.695313 45.539063 496.066406 45.539063 L 493.144531 45.539063 L 493.144531 77.402344 L 485.675781 77.402344 "/>
<path style=" stroke:none;fill-rule:nonzero;fill:rgb(100%,100%,100%);fill-opacity:1;" d="M 534.324219 10.039063 L 541.894531 10.039063 L 541.894531 70.972656 L 564.804688 70.972656 L 564.804688 77.402344 L 534.324219 77.402344 "/>
<path style=" stroke:none;fill-rule:nonzero;fill:rgb(100%,100%,100%);fill-opacity:1;" d="M 581.460938 71.066406 C 582.871094 71.15625 584.285156 71.253906 585.5 71.253906 C 600.027344 71.253906 604.164063 63.238281 604.164063 43.394531 C 604.164063 23.734375 600.027344 15.816406 585.597656 15.816406 C 584.285156 15.816406 582.871094 15.90625 581.460938 16.003906 Z M 573.890625 10.039063 L 587.414063 10.039063 C 604.675781 10.039063 611.636719 20.476563 611.636719 43.578125 C 611.636719 66.871094 604.773438 77.402344 587.414063 77.402344 L 573.890625 77.402344 "/>
<path style=" stroke:none;fill-rule:nonzero;fill:rgb(100%,100%,100%);fill-opacity:1;" d="M 372.421875 111.867188 L 379.890625 111.867188 L 379.890625 155.007813 C 379.890625 168.144531 380.800781 174.386719 390.792969 174.386719 C 400.578125 174.386719 401.589844 168.050781 401.589844 155.007813 L 401.589844 111.867188 L 409.058594 111.867188 L 409.058594 155.660156 C 409.058594 164.511719 408.753906 170.660156 405.222656 174.851563 C 402.195313 178.390625 397.046875 180.535156 390.792969 180.535156 C 384.433594 180.535156 379.285156 178.390625 376.257813 174.851563 C 372.625 170.660156 372.421875 164.511719 372.421875 155.660156 "/>
<path style=" stroke:none;fill-rule:nonzero;fill:rgb(100%,100%,100%);fill-opacity:1;" d="M 429.75 117.085938 L 429.75 179.230469 L 423.191406 179.230469 L 423.191406 111.867188 L 434.089844 111.867188 L 449.128906 150.066406 C 451.25 155.566406 453.269531 161.15625 455.082031 166.839844 C 454.476563 161.0625 454.476563 156.125 454.476563 152.117188 L 454.476563 111.867188 L 461.039063 111.867188 L 461.039063 179.230469 L 453.671875 179.230469 L 435.300781 132.644531 C 433.082031 127.054688 431.265625 121.835938 429.75 117.085938 "/>
<path style=" stroke:none;fill-rule:nonzero;fill:rgb(100%,100%,100%);fill-opacity:1;" d="M 475.472656 179.230469 L 482.941406 179.230469 L 482.941406 111.867188 L 475.472656 111.867188 Z M 475.472656 179.230469 "/>
<path style=" stroke:none;fill-rule:nonzero;fill:rgb(100%,100%,100%);fill-opacity:1;" d="M 491.320313 111.867188 L 498.789063 111.867188 L 509.6875 157.800781 C 510.296875 160.226563 510.796875 163.765625 511.507813 168.332031 C 512.109375 165.070313 512.816406 161.4375 513.726563 157.519531 L 524.523438 111.867188 L 531.691406 111.867188 L 515.039063 179.230469 L 507.972656 179.230469 "/>
<path style=" stroke:none;fill-rule:nonzero;fill:rgb(100%,100%,100%);fill-opacity:1;" d="M 539.765625 111.867188 L 572.566406 111.867188 L 572.566406 118.113281 L 547.238281 118.113281 L 547.238281 141.3125 L 565.808594 141.3125 L 565.808594 147.460938 L 547.238281 147.460938 L 547.238281 172.988281 L 573.476563 172.988281 L 573.476563 179.230469 L 539.765625 179.230469 "/>
<path style=" stroke:none;fill-rule:nonzero;fill:rgb(100%,100%,100%);fill-opacity:1;" d="M 596.691406 141.308594 C 606.683594 141.308594 611.730469 137.394531 611.730469 129.570313 C 611.730469 121.652344 606.785156 117.828125 596.691406 117.828125 L 590.335938 117.828125 L 590.335938 141.308594 Z M 582.863281 111.867188 L 596.191406 111.867188 C 611.933594 111.867188 619.703125 117.644531 619.703125 129.570313 C 619.703125 137.769531 615.667969 143.453125 608.195313 145.6875 L 620.105469 179.230469 L 612.035156 179.230469 L 601.03125 147.175781 C 598.507813 147.273438 595.886719 147.367188 593.257813 147.367188 L 590.335938 147.367188 L 590.335938 179.230469 L 582.863281 179.230469 "/>
<path style=" stroke:none;fill-rule:nonzero;fill:rgb(100%,100%,100%);fill-opacity:1;" d="M 635.25 161.34375 C 635.757813 170.101563 639.386719 174.292969 646.859375 174.292969 C 653.214844 174.292969 657.554688 169.914063 657.554688 163.113281 C 657.554688 155.847656 652.308594 151.558594 643.425781 145.503906 C 634.441406 139.355469 629.296875 134.882813 629.296875 125.753906 C 629.296875 117.179688 636.058594 110.5625 645.445313 110.5625 C 656.242188 110.5625 662.902344 117.179688 663.308594 128.824219 L 656.34375 128.824219 C 655.738281 120.53125 652.207031 116.339844 645.746094 116.339844 C 639.792969 116.339844 635.953125 119.972656 635.953125 125.753906 C 635.953125 128.636719 637.269531 131.527344 639.488281 133.671875 C 643.324219 137.398438 648.371094 140.285156 653.113281 143.824219 C 660.886719 149.601563 664.621094 155.007813 664.621094 162.832031 C 664.621094 173.640625 657.355469 180.535156 646.65625 180.535156 C 635.148438 180.535156 628.386719 173.640625 628.1875 161.34375 "/>
<path style=" stroke:none;fill-rule:nonzero;fill:rgb(100%,100%,100%);fill-opacity:1;" d="M 676.230469 179.230469 L 683.699219 179.230469 L 683.699219 111.867188 L 676.230469 111.867188 Z M 676.230469 179.230469 "/>
<path style=" stroke:none;fill-rule:nonzero;fill:rgb(100%,100%,100%);fill-opacity:1;" d="M 707.113281 117.644531 L 692.582031 117.644531 L 692.582031 111.871094 L 729.21875 111.871094 L 729.21875 117.644531 L 714.480469 117.644531 L 714.480469 179.230469 L 707.113281 179.230469 "/>
<path style=" stroke:none;fill-rule:nonzero;fill:rgb(100%,100%,100%);fill-opacity:1;" d="M 746.378906 150.253906 L 730.027344 111.867188 L 737.800781 111.867188 L 750.3125 142.519531 L 762.527344 111.867188 L 770.195313 111.867188 L 754.050781 150.253906 L 754.050781 179.234375 L 746.378906 179.234375 "/>
<path style=" stroke:none;fill-rule:nonzero;fill:rgb(100%,100%,100%);fill-opacity:1;" d="M 386.449219 244.90625 C 396.441406 244.90625 401.492188 240.992188 401.492188 233.164063 C 401.492188 225.246094 396.546875 221.425781 386.449219 221.425781 L 380.09375 221.425781 L 380.09375 244.90625 Z M 372.625 215.464844 L 385.949219 215.464844 C 401.691406 215.464844 409.464844 221.242188 409.464844 233.164063 C 409.464844 241.363281 405.425781 247.050781 397.957031 249.285156 L 409.867188 282.828125 L 401.792969 282.828125 L 390.789063 250.773438 C 388.265625 250.867188 385.644531 250.960938 383.019531 250.960938 L 380.09375 250.960938 L 380.09375 282.828125 L 372.625 282.828125 "/>
<path style=" stroke:none;fill-rule:nonzero;fill:rgb(100%,100%,100%);fill-opacity:1;" d="M 444.082031 256.644531 L 436.414063 221.425781 L 428.84375 256.644531 Z M 431.46875 215.464844 L 441.761719 215.464844 L 457.707031 282.828125 L 449.835938 282.828125 L 445.597656 262.980469 L 427.226563 262.980469 L 422.984375 282.828125 L 415.621094 282.828125 "/>
<path style=" stroke:none;fill-rule:nonzero;fill:rgb(100%,100%,100%);fill-opacity:1;" d="M 472.953125 220.679688 L 472.953125 282.828125 L 466.394531 282.828125 L 466.394531 215.460938 L 477.289063 215.460938 L 492.328125 253.664063 C 494.449219 259.160156 496.46875 264.75 498.285156 270.433594 C 497.679688 264.65625 497.679688 259.71875 497.679688 255.710938 L 497.679688 215.460938 L 504.238281 215.460938 L 504.238281 282.828125 L 496.871094 282.828125 L 478.503906 236.242188 C 476.28125 230.648438 474.464844 225.433594 472.953125 220.679688 "/>
<path style=" stroke:none;fill-rule:nonzero;fill:rgb(100%,100%,100%);fill-opacity:1;" d="M 518.371094 215.460938 L 525.941406 215.460938 L 525.941406 251.429688 L 547.539063 215.460938 L 555.007813 215.460938 L 540.472656 239.21875 L 557.328125 282.824219 L 549.253906 282.824219 L 535.628906 246.394531 L 525.839844 262.609375 L 525.839844 282.824219 L 518.371094 282.824219 "/>
<path style=" stroke:none;fill-rule:nonzero;fill:rgb(100%,100%,100%);fill-opacity:1;" d="M 564.496094 282.828125 L 571.964844 282.828125 L 571.964844 215.464844 L 564.496094 215.464844 Z M 564.496094 282.828125 "/>
<path style=" stroke:none;fill-rule:nonzero;fill:rgb(100%,100%,100%);fill-opacity:1;" d="M 593.058594 220.679688 L 593.058594 282.828125 L 586.5 282.828125 L 586.5 215.460938 L 597.398438 215.460938 L 612.441406 253.664063 C 614.554688 259.160156 616.578125 264.75 618.390625 270.433594 C 617.785156 264.65625 617.785156 259.71875 617.785156 255.710938 L 617.785156 215.460938 L 624.347656 215.460938 L 624.347656 282.828125 L 616.980469 282.828125 L 598.613281 236.242188 C 596.390625 230.648438 594.574219 225.433594 593.058594 220.679688 "/>
<path style=" stroke:none;fill-rule:nonzero;fill:rgb(100%,100%,100%);fill-opacity:1;" d="M 669.664063 278.910156 C 666.335938 282.542969 662.398438 284.128906 656.949219 284.128906 C 643.125 284.128906 636.160156 272.765625 636.160156 250.027344 C 636.160156 225.804688 642.617188 214.0625 657.054688 214.0625 C 668.054688 214.0625 675.117188 221.800781 675.117188 235.214844 L 667.851563 235.214844 C 667.34375 225.25 663.410156 220.121094 656.949219 220.121094 C 647.160156 220.121094 644.03125 229.71875 644.03125 249.84375 C 644.03125 268.757813 647.867188 277.980469 657.859375 277.980469 C 664.316406 277.980469 668.65625 273.414063 668.65625 265.21875 L 668.65625 257.296875 L 658.0625 257.296875 L 658.0625 251.242188 L 675.722656 251.242188 L 675.722656 282.824219 L 670.476563 282.824219 "/>
<path style=" stroke:none;fill-rule:nonzero;fill:rgb(100%,100%,100%);fill-opacity:1;" d="M 692.074219 264.9375 C 692.582031 273.695313 696.214844 277.886719 703.683594 277.886719 C 710.039063 277.886719 714.378906 273.507813 714.378906 266.707031 C 714.378906 259.4375 709.132813 255.152344 700.253906 249.097656 C 691.269531 242.949219 686.121094 238.476563 686.121094 229.34375 C 686.121094 220.773438 692.882813 214.15625 702.269531 214.15625 C 713.070313 214.15625 719.730469 220.773438 720.132813 232.421875 L 713.171875 232.421875 C 712.5625 224.125 709.03125 219.933594 702.570313 219.933594 C 696.621094 219.933594 692.78125 223.570313 692.78125 229.34375 C 692.78125 232.234375 694.09375 235.121094 696.316406 237.265625 C 700.152344 240.992188 705.195313 243.878906 709.9375 247.421875 C 717.710938 253.199219 721.445313 258.601563 721.445313 266.425781 C 721.445313 277.238281 714.179688 284.128906 703.480469 284.128906 C 691.976563 284.128906 685.210938 277.238281 685.011719 264.9375 "/>
<g clip-path="url(#clip3)" clip-rule="nonzero">
<path style=" stroke:none;fill-rule:nonzero;fill:rgb(92.89856%,10.198975%,20.399475%);fill-opacity:1;" d="M 83.128906 291.878906 L 30.585938 291.878906 L 30.585938 39.582031 L 0 39.582031 L 0 0.0078125 L 114.828125 0.0078125 L 114.828125 39.582031 L 83.128906 39.582031 "/>
</g>
<g clip-path="url(#clip4)" clip-rule="nonzero">
<path style=" stroke:none;fill-rule:nonzero;fill:rgb(70.199585%,11.399841%,55.299377%);fill-opacity:1;" d="M 174.652344 150.082031 L 174.652344 291.878906 L 125.359375 291.878906 L 125.011719 0.00390625 L 174.652344 0.00390625 L 174.652344 110.484375 L 187.640625 110.484375 L 187.640625 0.00390625 L 236.925781 0.00390625 L 236.925781 291.878906 L 187.640625 291.878906 L 187.640625 150.082031 "/>
</g>
<g clip-path="url(#clip5)" clip-rule="nonzero">
<path style=" stroke:none;fill-rule:nonzero;fill:rgb(4.699707%,40.79895%,69.799805%);fill-opacity:1;" d="M 347.027344 39.582031 L 300.257813 39.582031 L 300.257813 114.429688 L 339.476563 114.429688 L 339.476563 150.082031 L 300.257813 150.082031 L 300.257813 247.960938 L 347.027344 247.960938 L 347.027344 291.878906 L 249.167969 291.878906 L 249.167969 0.0078125 L 347.027344 0.0078125 "/>
</g>
<path style=" stroke:none;fill-rule:nonzero;fill:rgb(100%,100%,100%);fill-opacity:1;" d="M 45.070313 276.457031 L 45.070313 282.414063 L 42.507813 282.414063 L 42.507813 267.394531 L 45.070313 267.394531 L 45.070313 273.433594 L 72.421875 273.433594 L 72.421875 276.457031 "/>
<path style=" stroke:none;fill-rule:nonzero;fill:rgb(100%,100%,100%);fill-opacity:1;" d="M 42.507813 263.214844 L 72.421875 263.214844 L 72.421875 260.148438 L 42.507813 260.148438 Z M 42.507813 263.214844 "/>
<path style=" stroke:none;fill-rule:nonzero;fill:rgb(100%,100%,100%);fill-opacity:1;" d="M 42.507813 253.652344 L 42.507813 248.894531 L 58.066406 245.292969 C 60.753906 244.671875 63.773438 244.09375 67.167969 243.636719 C 64.1875 243.226563 61.167969 242.644531 58.105469 241.941406 L 42.507813 238.300781 L 42.507813 233.5 L 72.421875 233.5 L 72.421875 236.234375 L 44.617188 236.234375 L 72.421875 242.6875 L 72.421875 244.589844 L 44.617188 250.964844 L 72.421875 250.964844 L 72.421875 253.652344 "/>
<path style=" stroke:none;fill-rule:nonzero;fill:rgb(100%,100%,100%);fill-opacity:1;" d="M 42.507813 227.082031 L 42.507813 213.636719 L 45.277344 213.636719 L 45.277344 224.019531 L 55.582031 224.019531 L 55.582031 216.40625 L 58.3125 216.40625 L 58.3125 224.019531 L 69.648438 224.019531 L 69.648438 213.261719 L 72.421875 213.261719 L 72.421875 227.082031 "/>
<path style=" stroke:none;fill-rule:nonzero;fill:rgb(100%,100%,100%);fill-opacity:1;" d="M 64.476563 207.09375 C 68.367188 206.890625 70.226563 205.398438 70.226563 202.332031 C 70.226563 199.730469 68.285156 197.949219 65.265625 197.949219 C 62.035156 197.949219 60.132813 200.101563 57.441406 203.742188 C 54.710938 207.421875 52.726563 209.535156 48.671875 209.535156 C 44.863281 209.535156 41.925781 206.765625 41.925781 202.914063 C 41.925781 198.488281 44.863281 195.753906 50.035156 195.589844 L 50.035156 198.445313 C 46.351563 198.695313 44.492188 200.144531 44.492188 202.789063 C 44.492188 205.230469 46.105469 206.804688 48.671875 206.804688 C 49.953125 206.804688 51.238281 206.265625 52.1875 205.355469 C 53.84375 203.78125 55.125 201.714844 56.699219 199.769531 C 59.265625 196.582031 61.664063 195.054688 65.140625 195.054688 C 69.9375 195.054688 73 198.03125 73 202.417969 C 73 207.132813 69.9375 209.90625 64.476563 209.992188 "/>
<path style=" stroke:none;fill-rule:nonzero;fill:rgb(100%,100%,100%);fill-opacity:1;" d="M 135.175781 280.128906 L 135.175781 277.070313 L 148.003906 277.070313 L 148.003906 268.378906 L 135.175781 268.378906 L 135.175781 265.316406 L 165.089844 265.316406 L 165.089844 268.378906 L 150.855469 268.378906 L 150.855469 277.070313 L 165.089844 277.070313 L 165.089844 280.128906 "/>
<path style=" stroke:none;fill-rule:nonzero;fill:rgb(100%,100%,100%);fill-opacity:1;" d="M 135.175781 258.816406 L 165.089844 258.816406 L 165.089844 255.757813 L 135.175781 255.757813 Z M 135.175781 258.816406 "/>
<path style=" stroke:none;fill-rule:nonzero;fill:rgb(100%,100%,100%);fill-opacity:1;" d="M 163.351563 236.46875 C 164.964844 237.835938 165.667969 239.453125 165.667969 241.683594 C 165.667969 247.351563 160.621094 250.207031 150.527344 250.207031 C 139.765625 250.207031 134.554688 247.558594 134.554688 241.640625 C 134.554688 237.132813 137.988281 234.238281 143.949219 234.238281 L 143.949219 237.214844 C 139.519531 237.425781 137.242188 239.035156 137.242188 241.683594 C 137.242188 245.699219 141.503906 246.980469 150.441406 246.980469 C 158.84375 246.980469 162.9375 245.410156 162.9375 241.316406 C 162.9375 238.664063 160.914063 236.882813 157.269531 236.882813 L 153.753906 236.882813 L 153.753906 241.230469 L 151.0625 241.230469 L 151.0625 233.992188 L 165.089844 233.992188 L 165.089844 236.140625 "/>
<path style=" stroke:none;fill-rule:nonzero;fill:rgb(100%,100%,100%);fill-opacity:1;" d="M 135.175781 228.355469 L 135.175781 225.292969 L 148.003906 225.292969 L 148.003906 216.605469 L 135.175781 216.605469 L 135.175781 213.542969 L 165.089844 213.542969 L 165.089844 216.605469 L 150.855469 216.605469 L 150.855469 225.292969 L 165.089844 225.292969 L 165.089844 228.355469 "/>
<path style=" stroke:none;fill-rule:nonzero;fill:rgb(100%,100%,100%);fill-opacity:1;" d="M 135.175781 207.125 L 135.175781 193.679688 L 137.949219 193.679688 L 137.949219 204.0625 L 148.25 204.0625 L 148.25 196.449219 L 150.980469 196.449219 L 150.980469 204.0625 L 162.316406 204.0625 L 162.316406 193.304688 L 165.089844 193.304688 L 165.089844 207.125 "/>
<path style=" stroke:none;fill-rule:nonzero;fill:rgb(100%,100%,100%);fill-opacity:1;" d="M 148.25 183.164063 C 148.25 179.066406 146.511719 177 143.035156 177 C 139.519531 177 137.824219 179.027344 137.824219 183.164063 L 137.824219 185.773438 L 148.25 185.773438 Z M 135.175781 188.832031 L 135.175781 183.371094 C 135.175781 176.914063 137.738281 173.730469 143.035156 173.730469 C 146.675781 173.730469 149.199219 175.386719 150.195313 178.449219 L 165.089844 173.5625 L 165.089844 176.875 L 150.859375 181.386719 C 150.898438 182.417969 150.9375 183.496094 150.9375 184.570313 L 150.9375 185.773438 L 165.089844 185.773438 L 165.089844 188.832031 "/>
<path style=" stroke:none;fill-rule:nonzero;fill:rgb(100%,100%,100%);fill-opacity:1;" d="M 260.769531 280.128906 L 260.769531 266.679688 L 263.542969 266.679688 L 263.542969 277.066406 L 273.84375 277.066406 L 273.84375 269.453125 L 276.574219 269.453125 L 276.574219 277.066406 L 287.914063 277.066406 L 287.914063 266.308594 L 290.683594 266.308594 L 290.683594 280.128906 "/>
<path style=" stroke:none;fill-rule:nonzero;fill:rgb(100%,100%,100%);fill-opacity:1;" d="M 287.871094 258.566406 C 287.914063 257.988281 287.953125 257.40625 287.953125 256.914063 C 287.953125 250.953125 284.394531 249.257813 275.582031 249.257813 C 266.851563 249.257813 263.335938 250.953125 263.335938 256.871094 C 263.335938 257.40625 263.378906 257.988281 263.417969 258.566406 Z M 260.769531 261.671875 L 260.769531 256.128906 C 260.769531 249.050781 265.40625 246.195313 275.667969 246.195313 C 286.011719 246.195313 290.683594 249.007813 290.683594 256.128906 L 290.683594 261.671875 "/>
<path style=" stroke:none;fill-rule:nonzero;fill:rgb(100%,100%,100%);fill-opacity:1;" d="M 260.769531 240.8125 L 260.769531 237.75 L 279.929688 237.75 C 285.761719 237.75 288.53125 237.375 288.53125 233.28125 C 288.53125 229.269531 285.71875 228.851563 279.929688 228.851563 L 260.769531 228.851563 L 260.769531 225.789063 L 280.21875 225.789063 C 284.144531 225.789063 286.878906 225.914063 288.742188 227.363281 C 290.3125 228.605469 291.261719 230.714844 291.261719 233.28125 C 291.261719 235.886719 290.3125 238 288.742188 239.238281 C 286.878906 240.730469 284.144531 240.8125 280.21875 240.8125 "/>
<path style=" stroke:none;fill-rule:nonzero;fill:rgb(100%,100%,100%);fill-opacity:1;" d="M 281.542969 204.144531 C 287.828125 204.144531 291.265625 207.042969 291.265625 211.96875 C 291.265625 217.550781 286.21875 220.410156 276.121094 220.410156 C 265.363281 220.410156 260.152344 217.757813 260.152344 211.84375 C 260.152344 207.332031 263.582031 204.4375 269.542969 204.4375 L 269.542969 207.417969 C 265.117188 207.621094 262.835938 209.238281 262.835938 211.882813 C 262.835938 215.8125 267.058594 217.222656 275.832031 217.222656 C 284.4375 217.222656 288.535156 215.6875 288.535156 211.386719 C 288.535156 208.699219 286.054688 206.917969 281.5 206.917969 L 280.878906 206.917969 L 280.878906 204.144531 "/>
<path style=" stroke:none;fill-rule:nonzero;fill:rgb(100%,100%,100%);fill-opacity:1;" d="M 279.058594 189.660156 L 263.414063 192.804688 L 279.058594 195.910156 Z M 260.769531 194.832031 L 260.769531 190.609375 L 290.6875 184.074219 L 290.6875 187.300781 L 281.871094 189.039063 L 281.871094 196.570313 L 290.6875 198.308594 L 290.6875 201.328125 "/>
<path style=" stroke:none;fill-rule:nonzero;fill:rgb(100%,100%,100%);fill-opacity:1;" d="M 263.335938 176.25 L 263.335938 182.210938 L 260.769531 182.210938 L 260.769531 167.1875 L 263.335938 167.1875 L 263.335938 173.226563 L 290.6875 173.226563 L 290.6875 176.25 "/>
<path style=" stroke:none;fill-rule:nonzero;fill:rgb(100%,100%,100%);fill-opacity:1;" d="M 260.769531 163.003906 L 290.6875 163.003906 L 290.6875 159.941406 L 260.769531 159.941406 Z M 260.769531 163.003906 "/>
<path style=" stroke:none;fill-rule:nonzero;fill:rgb(100%,100%,100%);fill-opacity:1;" d="M 275.003906 151.167969 C 284.066406 151.167969 288.449219 149.84375 288.449219 146.164063 C 288.449219 142.5625 284.273438 141.15625 275.707031 141.15625 C 267.140625 141.15625 262.960938 142.605469 262.960938 146.164063 C 262.960938 149.679688 266.894531 151.167969 275.003906 151.167969 M 275.707031 154.398438 C 265.402344 154.398438 260.191406 151.542969 260.191406 146.164063 C 260.191406 140.78125 265.402344 137.890625 275.707031 137.890625 C 286.011719 137.890625 291.265625 140.78125 291.265625 146.164063 C 291.265625 151.542969 286.011719 154.398438 275.707031 154.398438 "/>
<path style=" stroke:none;fill-rule:nonzero;fill:rgb(100%,100%,100%);fill-opacity:1;" d="M 263.089844 129.730469 L 290.683594 129.730469 L 290.683594 132.421875 L 260.769531 132.421875 L 260.769531 127.953125 L 277.734375 121.785156 C 280.175781 120.917969 282.65625 120.09375 285.183594 119.347656 C 282.617188 119.59375 280.425781 119.59375 278.644531 119.59375 L 260.769531 119.59375 L 260.769531 116.90625 L 290.683594 116.90625 L 290.683594 119.929688 L 269.996094 127.457031 C 267.515625 128.367188 265.195313 129.109375 263.089844 129.730469 "/>
</g>
</svg>
